<svg width="43" height="42" viewBox="0 0 43 42" fill="none" xmlns="http://www.w3.org/2000/svg">
<path d="M17.2588 0.672852H1.17578C0.545898 0.672852 0 1.17676 0 1.84863V17.9316C0 18.5615 0.503906 19.1074 1.17578 19.1074H8.77637C8.69238 20.9131 8.39844 22.9287 7.43262 25.4902C6.4668 27.9678 2.77148 30.9912 0.587891 32.293C0.209962 32.5029 0 32.8809 0 33.3008V40.6914C0 41.0693 0.209961 41.4473 0.545898 41.6572C0.755859 41.7832 0.96582 41.8672 1.17578 41.8672C1.34375 41.8672 1.51172 41.8252 1.6377 41.7832C5.45898 40.1035 8.65039 37.8359 11.1279 35.1064C13.5635 32.377 15.4111 29.3115 16.6289 26.0361C17.8467 22.7607 18.4346 18.0156 18.4346 11.8848V1.84863C18.4346 1.21875 17.9307 0.672852 17.2588 0.672852ZM16.083 11.8428C16.083 17.6797 15.5371 22.1729 14.4033 25.1963C13.3115 28.1777 11.5898 30.9912 9.36426 33.5107C7.47461 35.6104 5.12305 37.416 2.35156 38.8437V33.9727C4.3252 32.7129 8.35644 29.5635 9.61621 26.3721C10.96 22.8867 11.1279 20.1992 11.1279 17.9736C11.1279 17.3437 10.624 16.7979 9.95215 16.7979H2.35156V3.02441H16.083V11.8428Z" fill="#393F44"/>
<path d="M41.8242 0.672852H25.7412C25.1113 0.672852 24.5654 1.17676 24.5654 1.84863V17.9316C24.5654 18.5615 25.0693 19.1074 25.7412 19.1074H33.3418C33.2578 20.9131 32.9639 22.9287 31.998 25.4902C31.0322 27.9678 27.3369 30.9912 25.1533 32.293C24.7754 32.5029 24.5654 32.8809 24.5654 33.3008V40.6914C24.5654 41.0693 24.7754 41.4473 25.1113 41.6572C25.3213 41.7832 25.5312 41.8672 25.7412 41.8672C25.9092 41.8672 26.0771 41.8252 26.2031 41.7832C30.0244 40.1035 33.2158 37.8359 35.6934 35.1064C38.1289 32.377 39.9766 29.3115 41.1943 26.0361C42.4121 22.7607 43 18.0156 43 11.8848V1.84863C43 1.21875 42.4541 0.672852 41.8242 0.672852ZM40.6484 11.8428C40.6484 17.6797 40.1025 22.1729 38.9688 25.1963C37.877 28.1777 36.1553 30.9912 33.9297 33.5107C32.04 35.6104 29.6885 37.416 26.917 38.8437V33.9727C28.8906 32.7129 32.9219 29.5635 34.1816 26.3721C35.5254 22.8867 35.6934 20.1992 35.6934 17.9736C35.6934 17.3437 35.1895 16.7979 34.5176 16.7979H26.917V3.02441H40.6484V11.8428Z" fill="#393F44"/>
</svg>
