<svg width="90" height="90" viewBox="0 0 90 90" fill="none" xmlns="http://www.w3.org/2000/svg">
<path d="M49.6452 6.68605V15.1744C54.4064 15.9302 58.7613 17.7326 62.5355 20.4651L68.8064 14.186L75.3677 20.7558L69.1548 26.9767C72.0581 30.8721 74.0323 35.407 74.7871 40.407H83.3226V49.7093H74.8452C74.0903 54.4767 72.2903 58.8372 69.5613 62.6163L75.3677 68.4302L68.8064 75L63.0581 69.2442C59.1677 72.1512 54.6387 74.1279 49.6452 74.8837V83.4302H40.3548V74.9419C35.3613 74.186 30.7742 72.1512 26.9419 69.3023L21.1935 75.0581L14.6323 68.4884L20.4387 62.6744C17.7677 58.8953 15.9097 54.5349 15.1548 49.7674H6.67742V40.407H15.1548C15.9097 35.407 17.8839 30.814 20.7871 26.9767L14.6323 20.7558L21.1935 14.186L27.4645 20.4651C31.2387 17.7907 35.5935 15.9302 40.3548 15.1744V6.68605H49.6452ZM49.6452 0H40.3548C36.6387 0 33.6774 3.02326 33.6774 6.68605V9.88372C31.9355 10.4651 30.1935 11.1628 28.5097 11.9767L25.8968 9.36046C24.6194 8.08139 22.9355 7.38372 21.1355 7.38372C19.3355 7.38372 17.6516 8.08139 16.3742 9.36046L9.87097 15.9884C7.25806 18.6047 7.25806 22.8488 9.87097 25.4651L12.3097 27.907C11.3226 29.7674 10.5097 31.686 9.87097 33.6628H6.67742C2.96129 33.6628 0 36.686 0 40.3488V49.6512C0 53.3721 3.01935 56.3372 6.67742 56.3372H9.87097C10.4516 58.0814 11.1484 59.8256 11.9613 61.5116L9.87097 63.6046C7.25806 66.2209 7.25806 70.4651 9.87097 73.0814L16.4323 79.6512C17.7677 80.9884 19.4516 81.6279 21.1935 81.6279C22.9355 81.6279 24.6194 80.9884 25.9548 79.6512L27.929 77.6744C29.7871 78.6628 31.7032 79.4767 33.6774 80.1163V83.314C33.6774 87.0349 36.6968 90 40.3548 90H49.6452C53.3613 90 56.3226 86.9767 56.3226 83.314V80.1163C58.2968 79.4767 60.2129 78.6628 62.071 77.6744L64.0452 79.6512C65.3806 80.9884 67.0645 81.6279 68.8064 81.6279C70.5484 81.6279 72.2323 80.9884 73.5677 79.6512L80.129 73.0814C81.4064 71.8023 82.1032 70.1163 82.1032 68.314C82.1032 66.5116 81.4064 64.8256 80.129 63.5465L78.0387 61.4535C78.8516 59.7674 79.5484 58.0814 80.129 56.2791H83.3226C87.0387 56.2791 90 53.2558 90 49.593V40.407C90 36.686 86.9806 33.7209 83.3226 33.7209H80.129C79.4903 31.7442 78.6774 29.8256 77.6903 27.9651L80.129 25.5233C82.7419 22.907 82.7419 18.6628 80.129 16.0465L73.5677 9.47674C72.2903 8.19767 70.6064 7.5 68.8064 7.5C67.0064 7.5 65.3226 8.19767 64.0452 9.47674L61.4323 12.093C59.7484 11.2791 58.0645 10.5814 56.2645 10V6.68605C56.3226 3.02326 53.3613 0 49.6452 0Z" fill="#393F44"/>
<path d="M45 58C37.7952 58 32 52.1265 32 45C32 37.8735 37.8735 32 45 32C52.2048 32 58 37.8735 58 45C58 52.1265 52.2048 58 45 58ZM45 41.006C42.8072 41.006 41.006 42.8072 41.006 45C41.006 47.1928 42.8072 48.994 45 48.994C47.1928 48.994 48.994 47.1928 48.994 45C48.994 42.8072 47.1928 41.006 45 41.006Z" fill="#393F44"/>
</svg>
