<svg width="22" height="23" viewBox="0 0 22 23" fill="none" xmlns="http://www.w3.org/2000/svg">
<path d="M22 18.1648C22 18.4588 21.9479 18.8427 21.8437 19.3164C21.7396 19.7901 21.6302 20.1631 21.5156 20.4354C21.2969 20.9799 20.6615 21.5571 19.6094 22.1669C18.6302 22.7223 17.6615 23 16.7031 23C16.4219 23 16.1458 22.9809 15.875 22.9428C15.6042 22.9047 15.3047 22.8366 14.9766 22.7386C14.6484 22.6406 14.4036 22.5617 14.2422 22.5018C14.0807 22.4419 13.7917 22.3303 13.375 22.1669C12.9583 22.0036 12.7031 21.9055 12.6094 21.8729C11.5885 21.4917 10.6771 21.0398 9.875 20.517C8.55208 19.6567 7.17708 18.4806 5.75 16.9886C4.32292 15.4967 3.19792 14.0592 2.375 12.6761C1.875 11.8376 1.44271 10.8847 1.07812 9.81747C1.04687 9.71946 0.953125 9.45265 0.796875 9.01705C0.640625 8.58144 0.533854 8.27924 0.476563 8.11044C0.419271 7.94164 0.34375 7.68572 0.25 7.34268C0.15625 6.99964 0.0911458 6.68655 0.0546875 6.40341C0.0182292 6.12027 0 5.83168 0 5.53764C0 4.53575 0.265625 3.52296 0.796875 2.49929C1.38021 1.39938 1.93229 0.735085 2.45312 0.506392C2.71354 0.3866 3.07031 0.272254 3.52344 0.163352C3.97656 0.0544508 4.34375 0 4.625 0C4.77083 0 4.88021 0.0163352 4.95312 0.0490057C5.14062 0.114347 5.41667 0.528172 5.78125 1.29048C5.89583 1.4974 6.05208 1.79143 6.25 2.17259C6.44792 2.55374 6.63021 2.8995 6.79687 3.20987C6.96354 3.52024 7.125 3.81155 7.28125 4.08381C7.3125 4.12737 7.40365 4.26349 7.55469 4.49219C7.70573 4.72088 7.81771 4.91418 7.89063 5.07209C7.96354 5.23 8 5.38518 8 5.53764C8 5.75545 7.85156 6.0277 7.55469 6.3544C7.25781 6.68111 6.9349 6.98059 6.58594 7.25284C6.23698 7.52509 5.91406 7.81368 5.61719 8.11861C5.32031 8.42353 5.17187 8.67401 5.17187 8.87003C5.17187 8.96804 5.19792 9.09055 5.25 9.23757C5.30208 9.38459 5.34635 9.49621 5.38281 9.57244C5.41927 9.64867 5.49219 9.77936 5.60156 9.96449C5.71094 10.1496 5.77083 10.2531 5.78125 10.2749C6.57292 11.7668 7.47917 13.0464 8.5 14.1136C9.52083 15.1809 10.7448 16.1283 12.1719 16.956C12.1927 16.9669 12.2917 17.0295 12.4687 17.1438C12.6458 17.2582 12.7708 17.3344 12.8437 17.3725C12.9167 17.4106 13.0234 17.4569 13.1641 17.5114C13.3047 17.5658 13.4219 17.593 13.5156 17.593C13.7031 17.593 13.9427 17.4379 14.2344 17.1275C14.526 16.8171 14.8021 16.4795 15.0625 16.1147C15.3229 15.7499 15.6094 15.4123 15.9219 15.1019C16.2344 14.7915 16.4948 14.6364 16.7031 14.6364C16.849 14.6364 16.9974 14.6745 17.1484 14.7507C17.2995 14.8269 17.4844 14.944 17.7031 15.1019C17.9219 15.2598 18.0521 15.3551 18.0937 15.3878C18.3542 15.5511 18.6328 15.7199 18.9297 15.8942C19.2266 16.0684 19.5573 16.259 19.9219 16.4659C20.2865 16.6728 20.5677 16.8362 20.7656 16.956C21.4948 17.3371 21.8906 17.6257 21.9531 17.8217C21.9844 17.898 22 18.0123 22 18.1648Z" fill="black"/>
</svg>
